<?xml version="1.0"?>
<svg xmlns="http://www.w3.org/2000/svg" height="512px" viewBox="0 -66 511.99969 511" width="512px" class=""><g><path d="m130.003906 370.515625 372.015625-180.007813-372.015625-180.007812c.046875.136719 58.152344 174.453125 60.003906 180.007812-2.660156 7.972657-57.933593 173.792969-60.003906 180.007813zm0 0" fill="#ffda2d" data-original="#FFDA2D" class="" data-old_color="#ffda2d" style="fill:#FFA500"/><path d="m173.644531 141.414062 16.363281 49.09375-16.363281 49.089844-73.640625-49.089844zm0 0" fill="#ff641a" data-original="#FF641A" class="active-path" data-old_color="#ff641a" style="fill:#FFA500"/><g fill="#020202"><path d="m50 190.507812c0-5.523437-4.476562-10-10-10h-30c-5.523438 0-10 4.476563-10 10 0 5.523438 4.476562 10 10 10h30c5.523438 0 10-4.476562 10-10zm0 0" data-original="#000000" class="" data-old_color="#000000" style="fill:#F5F5DC"/><path d="m110.003906 250.507812c0-5.519531-4.476562-10-10-10h-60.003906c-5.523438 0-10 4.480469-10 10 0 5.523438 4.476562 10.003907 10 10.003907h60.003906c5.523438 0 10-4.480469 10-10.003907zm0 0" data-original="#000000" class="" data-old_color="#000000" style="fill:#F5F5DC"/><path d="m100.003906 140.503906c5.523438 0 10-4.476562 10-10 0-5.519531-4.476562-10-10-10h-60.003906c-5.523438 0-10 4.480469-10 10 0 5.523438 4.476562 10 10 10zm0 0" data-original="#000000" class="" data-old_color="#000000" style="fill:#F5F5DC"/><path d="m326.011719 190.507812c0 5.523438-4.476563 10-10 10-5.523438 0-10-4.476562-10-10 0-5.523437 4.476562-10 10-10 5.523437 0 10 4.476563 10 10zm0 0" data-original="#000000" class="" data-old_color="#000000" style="fill:#F5F5DC"/><path d="m506.371094 181.503906-372.011719-180.003906c-3.617187-1.753906-7.9375-1.167969-10.957031 1.488281-3.019532 2.65625-4.15625 6.859375-2.886719 10.675781l41.222656 123.667969-67.28125 44.855469c-2.785156 1.855469-4.453125 4.976562-4.453125 8.320312s1.667969 6.464844 4.453125 8.320313l67.28125 44.851563-41.222656 123.671874c-1.269531 3.8125-.132813 8.019532 2.886719 10.675782 3.03125 2.664062 7.347656 3.234375 10.957031 1.488281l372.011719-180.003906c7.414062-3.59375 7.59375-14.332031 0-18.007813zm-388.339844 9.003906 50.265625-33.507812 11.167969 33.507812-11.167969 33.507813zm79.183594 10h73.792968c5.523438 0 10.003907-4.476562 10.003907-10 0-5.523437-4.480469-10-10.003907-10h-73.792968l-50.226563-150.679687 311.402344 150.679687h-97.378906c-5.523438 0-10 4.476563-10 10 0 5.523438 4.476562 10 10 10h97.378906l-311.402344 150.679688zm0 0" data-original="#000000" class="" data-old_color="#000000" style="fill:#F5F5DC"/></g></g> </svg>
