<?xml version="1.0"?>
<svg xmlns="http://www.w3.org/2000/svg" height="512px" viewBox="-16 0 279 279.16461" width="512px" class=""><g><path d="m230.960938 124.285156-197.433594-115.023437c-11.804688-6.871094-26.617188 1.636719-26.617188 15.300781v230.046875c0 13.667969 14.8125 22.175781 26.617188 15.300781l197.433594-115.023437c11.726562-6.828125 11.726562-23.769531 0-30.601563" fill="#ffb8f2" data-original="#FFB8F2" class="" data-old_color="#ffb8f2" style="fill:#FFA500"/><g fill="#54596e"><path d="m230.960938 124.285156 3.4375-5.898437-197.4375-115.023438c-3.902344-2.277343-8.179688-3.36718725-12.320313-3.363281-6.449219.0078125-12.523437 2.550781-17.058594 6.882812-4.535156 4.316407-7.5156248 10.613282-7.4999998 17.679688v230.042969c-.015625 7.070312 2.9687498 13.359375 7.4999998 17.675781 4.535157 4.332031 10.605469 6.875 17.058594 6.882812 4.136719.003907 8.410156-1.082031 12.3125-3.355468l.007813-.003906 197.4375-115.019532c8.054687-4.679687 12.222656-13.058594 12.179687-21.203125.042969-8.148437-4.125-16.53125-12.179687-21.199219l-3.4375 5.902344-3.433594 5.902344c3.664062 2.152344 5.359375 5.65625 5.402344 9.398438-.042969 3.738281-1.738282 7.242187-5.40625 9.402343l-197.4375 115.023438.011718-.003907c-1.835937 1.054688-3.65625 1.5-5.457031 1.503907-2.792969.007812-5.585937-1.140625-7.609375-3.089844-2.023438-1.964844-3.28125-4.535156-3.296875-7.816406v-230.042969c.015625-3.28125 1.277344-5.855469 3.296875-7.820312 2.023438-1.945313 4.816406-3.09375 7.609375-3.09375 1.796875.011718 3.613281.449218 5.445313 1.511718l197.4375 115.023438z" data-original="#000000" class="active-path" style="fill:#000000" data-old_color="#000000"/><path d="m157.09375 115.691406c0 5.65625-4.585938 10.242188-10.238281 10.242188-5.65625 0-10.242188-4.585938-10.242188-10.242188 0-5.652344 4.585938-10.238281 10.242188-10.238281 5.652343 0 10.238281 4.585937 10.238281 10.238281zm0 0" data-original="#000000" class="active-path" style="fill:#000000" data-old_color="#000000"/><path d="m88.828125 115.691406c0 5.65625-4.585937 10.242188-10.242187 10.242188-5.652344 0-10.238282-4.585938-10.238282-10.242188 0-5.652344 4.585938-10.238281 10.238282-10.238281 5.65625 0 10.242187 4.585937 10.242187 10.238281zm0 0" data-original="#000000" class="active-path" style="fill:#000000" data-old_color="#000000"/><path d="m98.492188 139.585938c-1.757813 3.359374-2.839844 7.210937-2.839844 11.378906 0 12.566406 9.171875 22.753906 20.480468 22.753906 11.3125 0 20.480469-10.1875 20.480469-22.753906 0-4.167969-1.078125-8.019532-2.839843-11.378906-3.546876 6.773437-31.734376 6.773437-35.28125 0zm0 0" data-original="#000000" class="active-path" style="fill:#000000" data-old_color="#000000"/></g><path d="m24.640625 13.648438c-2.792969 0-5.585937 1.148437-7.609375 3.09375-2.019531 1.964843-3.28125 4.539062-3.296875 7.820312v230.042969c.015625 3.28125 1.273437 5.851562 3.296875 7.816406 2.015625 1.941406 4.792969 3.089844 7.582031 3.089844h.027344c1.796875-.003907 3.621094-.449219 5.457031-1.503907l-.011718.003907 17.78125-10.359375v-228.128906l-17.78125-10.363282c-1.832032-1.0625-3.648438-1.5-5.445313-1.511718" fill="#dda5d8" data-original="#DDA5D8" class="" data-old_color="#dda5d8" style="fill:#FFA500"/><path d="m24.644531 6.832031c-9.25 0-17.738281 7.386719-17.738281 17.730469v230.046875c0 10.34375 8.488281 17.734375 17.734375 17.734375 2.96875 0 6.015625-.761719 8.890625-2.433594l15.582031-9.078125c-.726562-1.925781-1.246093-3.964843-1.246093-6.222656v-.957031l-17.78125 10.359375.007812-.003907c-1.835938 1.054688-3.65625 1.5-5.453125 1.503907-.011719 0-.019531 0-.03125 0-2.785156 0-5.5625-1.148438-7.578125-3.089844-2.023438-1.964844-3.285156-4.535156-3.300781-7.816406v-230.042969c.015625-3.28125 1.28125-5.855469 3.300781-7.820312 2.019531-1.945313 4.8125-3.09375 7.609375-3.09375 1.796875.011718 3.609375.449218 5.445313 1.511718l17.78125 10.363282v-.960938c0-2.25.519531-4.292969 1.246093-6.21875l-15.582031-9.082031c-2.871094-1.671875-5.917969-2.429688-8.886719-2.429688" fill="#54596e" data-original="#54596E" class="" data-old_color="#54596e" style="fill:#000000"/></g> </svg>
